<?xml version="1.0" encoding="UTF-8" standalone="no"?>
<svg width="50px" height="39px" viewBox="0 0 50 39" version="1.1" xmlns="http://www.w3.org/2000/svg" xmlns:xlink="http://www.w3.org/1999/xlink" xmlns:sketch="http://www.bohemiancoding.com/sketch/ns">
    <!-- Generator: Sketch 3.4.2 (15857) - http://www.bohemiancoding.com/sketch -->
    <title>Page 1</title>
    <desc>Created with Sketch.</desc>
    <defs></defs>
    <g id="Page-1" stroke="none" stroke-width="1" fill="none" fill-rule="evenodd" sketch:type="MSPage">
        <g id="Artboard-1" sketch:type="MSArtboardGroup" transform="translate(-289.000000, -194.000000)" fill="#FFFFFF">
            <g id="Page-1" sketch:type="MSLayerGroup" transform="translate(289.000000, 194.000000)">
                <path d="M37.0134921,16.6539683 L12.9865079,16.6539683 C11.0214286,16.6539683 9.41507937,18.2666667 9.41507937,20.2253968 L9.41507937,34.4746032 C9.41507937,36.4396825 11.0214286,38.0460317 12.9865079,38.0460317 L37.0103175,38.0460317 C38.9753968,38.0460317 40.581746,36.4396825 40.581746,34.4746032 L40.581746,20.2253968 C40.5849206,18.2666667 38.9753968,16.6539683 37.0134921,16.6539683 L37.0134921,16.6539683 Z M16.9269841,30.3507937 C15.2714286,30.3507937 13.9261905,29.0119048 13.9261905,27.35 C13.9261905,25.6944444 15.2714286,24.3555556 16.9269841,24.3555556 C18.5825397,24.3555556 19.9277778,25.6944444 19.9277778,27.35 C19.9277778,29.0119048 18.5825397,30.3507937 16.9269841,30.3507937 L16.9269841,30.3507937 Z M33.0730159,30.3507937 C31.4174603,30.3507937 30.0777778,29.0119048 30.0777778,27.35 C30.0777778,25.6944444 31.4174603,24.3555556 33.0730159,24.3555556 C34.7285714,24.3555556 36.0738095,25.6944444 36.0738095,27.35 C36.0706349,29.0119048 34.7253968,30.3507937 33.0730159,30.3507937 L33.0730159,30.3507937 Z" id="Fill-1" sketch:type="MSShapeGroup"></path>
                <path d="M28.2674603,4.00873016 C28.2674603,5.23650794 27.5952381,6.3 26.5936508,6.86111111 L26.5936508,14.9738095 L23.4031746,14.9738095 L23.4031746,6.86111111 C22.402381,6.30238095 21.7293651,5.23650794 21.7293651,4.00873016 C21.7293651,2.20396825 23.1928571,0.741269841 24.9968254,0.741269841 C26.8015873,0.741269841 28.2674603,2.20396825 28.2674603,4.00873016 L28.2674603,4.00873016 Z" id="Fill-2" sketch:type="MSShapeGroup"></path>
                <path d="M7.62936508,20.9198413 L7.62936508,33.7888889 L4.33095238,33.7888889 C2.36507937,33.7888889 0.75952381,32.1833333 0.75952381,30.2174603 L0.75952381,24.4912698 C0.75952381,22.5293651 2.36507937,20.9198413 4.33095238,20.9198413 L7.62936508,20.9198413 Z" id="Fill-3" sketch:type="MSShapeGroup"></path>
                <path d="M7.62936508,20.9198413 L7.62936508,33.7888889 L4.33095238,33.7888889 C2.36507937,33.7888889 0.75952381,32.1833333 0.75952381,30.2174603 L0.75952381,24.4912698 C0.75952381,22.5293651 2.36507937,20.9198413 4.33095238,20.9198413 L7.62936508,20.9198413 Z" id="Fill-4" sketch:type="MSShapeGroup"></path>
                <path d="M49.2373016,24.4912698 L49.2373016,30.2174603 C49.2373016,32.1833333 47.631746,33.7888889 45.665873,33.7888889 L42.3674603,33.7888889 L42.3674603,20.9198413 L45.665873,20.9198413 C47.631746,20.9198413 49.2373016,22.5261905 49.2373016,24.4912698 L49.2373016,24.4912698 Z" id="Fill-5" sketch:type="MSShapeGroup"></path>
                <path d="M49.2373016,24.4912698 L49.2373016,30.2174603 C49.2373016,32.1833333 47.631746,33.7888889 45.665873,33.7888889 L42.3674603,33.7888889 L42.3674603,20.9198413 L45.665873,20.9198413 C47.631746,20.9198413 49.2373016,22.5261905 49.2373016,24.4912698 L49.2373016,24.4912698 Z" id="Fill-6" sketch:type="MSShapeGroup"></path>
            </g>
        </g>
    </g>
</svg>