<?xml version="1.0" encoding="UTF-8" standalone="no"?>
<svg width="114px" height="37px" viewBox="0 0 114 37" version="1.1" xmlns="http://www.w3.org/2000/svg" xmlns:xlink="http://www.w3.org/1999/xlink">
    <!-- Generator: Sketch 3.6.1 (26313) - http://www.bohemiancoding.com/sketch -->
    <title>Final Logo</title>
    <desc>Created with Sketch.</desc>
    <defs>
        <linearGradient x1="50%" y1="0.384646046%" x2="50%" y2="131.020006%" id="linearGradient-1">
            <stop stop-color="#617BE0" offset="0%"></stop>
            <stop stop-color="#734CB9" offset="100%"></stop>
        </linearGradient>
    </defs>
    <g id="Lapa-Website" stroke="none" stroke-width="1" fill="none" fill-rule="evenodd">
        <g id="Final-Logo">
            <g id="lapa-logo">
                <g id="logo-1.0-copy">
                    <g id="Lapa-Website">
                        <g id="Home">
                            <g id="logo-1.0-copy">
                                <g id="logo-1.0">
                                    <path d="M33.916978,6.9353052 C33.1988969,7.43752806 32.7454862,7.70219843 32.0550653,7.86327855 C32.1163517,6.93096634 32.3810221,5.76381342 33.0020212,4.43720745 L33.6181391,3.11982156 L32.3940387,3.90135844 C32.0122191,4.14487687 31.1927172,4.47354539 30.3981638,4.79136677 C30.0017006,4.95027746 29.6079492,5.11081523 29.2331803,5.27189535 C26.4704122,1.94995686 22.1803659,0.0793665114 16.7459457,0.0793665114 C9.47727311,0.0793665114 4.03471755,3.80373412 1.8441364,9.79081641 C1.61905812,9.8607805 1.49214651,9.90091494 1.48346879,9.9052538 C1.36089604,9.9459306 1.26327173,10.0348772 1.20632421,10.1493146 C-0.812872036,14.2674336 0.43943098,16.7188886 0.494209068,16.8203094 C0.56417316,16.9515599 0.687288268,17.0302017 0.820708165,17.0578619 C1.216629,28.017276 7.94565608,36.4682875 16.4894107,36.4682875 C25.6058946,36.4682875 32.0805561,28.8139989 32.6565396,17.663675 C32.6690138,17.663675 32.679861,17.6745222 32.6923352,17.6745222 C32.7644687,17.6745222 32.8387716,17.6571668 32.9065663,17.6235406 C33.0486639,17.5535765 33.1457459,17.4201566 33.1690672,17.2634154 C33.4467542,15.3499788 33.2558444,13.8861564 32.9635138,12.8182549 C33.8258619,11.4775476 34.1566999,9.61292321 34.3725581,8.36929791 C34.4446916,7.95439458 34.5081474,7.5958964 34.5672644,7.40335955 L34.9338979,6.22319006 L33.916978,6.9353052 L33.916978,6.9353052 Z" id="face" fill="url(#linearGradient-1)"></path>
                                    <path d="M29.8200109,21.8691136 C27.5399408,30.6677761 23.3540271,25.6043283 17.2270166,25.6043283 C11.1000062,25.6043283 5.79303993,31.4682955 3.79499562,21.8691136 C2.37781599,15.0619871 10.6802216,16.3565939 16.8072321,16.3565939 C22.9320731,16.3565939 31.5061998,15.3543176 29.8200109,21.8691136 L29.8200109,21.8691136 L29.8200109,21.8691136 Z" id="mask" fill="#FFFFFF"></path>
                                    <path d="M11.1699703,22.4114709 C11.1699703,23.3052757 10.4453809,22.5324166 9.5510337,22.5324166 C8.65722886,22.5324166 7.9326395,23.3052757 7.9326395,22.4114709 C7.9326395,21.5171237 8.65722886,20.7930767 9.5510337,20.7930767 C10.4453809,20.7930767 11.1699703,21.5171237 11.1699703,22.4114709 L11.1699703,22.4114709 L11.1699703,22.4114709 Z" id="eye" fill="#6C60C9"></path>
                                    <path d="M25.5614213,22.4114709 C25.5614213,23.3052757 24.836832,22.5324166 23.9430271,22.5324166 C23.0486799,22.5324166 22.3240906,23.3052757 22.3240906,22.4114709 C22.3240906,21.5171237 23.0486799,20.7930767 23.9430271,20.7930767 C24.836832,20.7930767 25.5614213,21.5171237 25.5614213,22.4114709 L25.5614213,22.4114709 L25.5614213,22.4114709 Z" id="eye" fill="#6C60C9"></path>
                                    <path d="M28.0573496,6.35064403 C28.9153589,5.70415412 31.7117532,4.8380095 32.6185746,4.25931426 C31.9487633,5.68951047 31.6694493,6.94560999 31.6206371,7.95222515 C31.5994852,7.95439458 31.5864686,7.96036051 31.5653167,7.96252994 C31.4427439,7.97988537 31.3174594,8.00266438 31.1948867,8.02598574 L31.1948867,8.03683289 C31.1417356,8.04768003 31.0885846,8.06449311 31.035976,8.0747979 C31.0338065,8.0710014 31.0316371,8.06666254 31.0294677,8.06015425 C30.0760035,8.2678771 29.1247088,8.65132371 28.3176812,9.18717273 C27.696682,8.98161931 27.0485651,8.81620033 26.4004481,8.64915428 C26.6228146,7.78246731 27.2307971,6.97110078 28.0573496,6.35064403 L28.0573496,6.35064403 L28.0573496,6.35064403 Z" id="Path" fill="#FFFFFF"></path>
                                    <path d="M32.7942983,12.2677622 C32.4851547,11.3907705 32.1375037,10.890717 32.0675396,10.7952621 C32.0653701,10.7930927 32.0653701,10.7909233 32.0632007,10.7909233 C32.0610313,10.7887538 32.0588618,10.784415 32.0572348,10.7827879 L32.0572348,10.7827879 C32.0507265,10.7741102 32.0420488,10.7719408 32.0355405,10.7654325 C32.0355405,10.7632631 32.0339134,10.7610936 32.0339134,10.7594666 C31.9932366,10.7144509 31.9465939,10.6764859 31.8939852,10.6509951 C30.923708,10.1661277 29.9046186,9.74254661 28.8453948,9.36940478 C29.7072006,8.86121599 30.6970027,8.51573439 31.624976,8.38231449 C32.7308425,8.22123437 33.2433702,7.92239549 34.1604964,7.28241388 C33.9234863,8.0455106 33.7455931,10.5305918 32.7942983,12.2677622 L32.7942983,12.2677622 L32.7942983,12.2677622 Z" id="Path" fill="#FFFFFF"></path>
                                    <path d="M32.6901657,17.1956207 C32.6901657,17.1956207 18.5042681,9.32059263 0.916163051,16.5957735 C0.916163051,16.5957735 -0.298174954,14.305941 1.63858298,10.3586645 C1.63858298,10.3586645 18.7353123,4.60262643 31.6797541,11.078915 C31.6797541,11.078915 33.2835046,13.1170938 32.6901657,17.1956207 L32.6901657,17.1956207 L32.6901657,17.1956207 Z" id="top" fill="#FFFFFF"></path>
                                </g>
                                <g id="lapa" transform="translate(47.000000, 6.000000)" fill="#6869D1">
                                    <path d="M0.94568,0.9951609 L2.98568,0.9951609 L2.98568,23.0751609 L0.94568,23.0751609 L0.94568,0.9951609 Z M23.11568,7.1451609 L23.11568,23.0751609 L21.10568,23.0751609 L21.10568,20.3451609 C19.2856709,22.5251718 17.2056917,23.6151609 14.86568,23.6151609 C12.5256683,23.6151609 10.5506881,22.7801693 8.94068,21.1101609 C7.33067195,19.4401526 6.52568,17.4501725 6.52568,15.1401609 C6.52568,12.8301494 7.3356719,10.8501692 8.95568,9.2001609 C10.5756881,7.55015265 12.5156687,6.7251609 14.77568,6.7251609 C17.375693,6.7251609 19.4856719,7.8351498 21.10568,10.0551609 L21.10568,7.1451609 L23.11568,7.1451609 Z M21.22568,15.1851609 C21.22568,13.3651518 20.6156861,11.8301671 19.39568,10.5801609 C18.1756739,9.33015465 16.6806889,8.7051609 14.91068,8.7051609 C13.1406712,8.7051609 11.6456861,9.35015445 10.42568,10.6401609 C9.2056739,11.9301673 8.59568,13.4551521 8.59568,15.2151609 C8.59568,16.9751697 9.2156738,18.5001544 10.45568,19.7901609 C11.6956862,21.0801673 13.1806714,21.7251609 14.91068,21.7251609 C16.6406887,21.7251609 18.1256738,21.1051671 19.36568,19.8651609 C20.6056862,18.6251547 21.22568,17.0651703 21.22568,15.1851609 L21.22568,15.1851609 Z M27.76568,7.1451609 L29.80568,7.1451609 L29.80568,10.0551609 C31.4256881,7.8351498 33.535667,6.7251609 36.13568,6.7251609 C38.3756912,6.7251609 40.3056719,7.55015265 41.92568,9.2001609 C43.5456881,10.8501692 44.35568,12.8351493 44.35568,15.1551609 C44.35568,17.4751725 43.555688,19.4651526 41.95568,21.1251609 C40.355672,22.7851692 38.4356912,23.6151609 36.19568,23.6151609 C33.7556678,23.6151609 31.6256891,22.5251718 29.80568,20.3451609 L29.80568,28.8951609 L27.76568,28.8951609 L27.76568,7.1451609 Z M42.31568,15.1851609 C42.31568,13.405152 41.7006862,11.8801672 40.47068,10.6101609 C39.2406739,9.34015455 37.7356889,8.7051609 35.95568,8.7051609 C34.1756711,8.7051609 32.6806861,9.33015465 31.47068,10.5801609 C30.260674,11.8301671 29.65568,13.3751517 29.65568,15.2151609 C29.65568,17.0551701 30.2756738,18.6001547 31.51568,19.8501609 C32.7556862,21.1001671 34.2406714,21.7251609 35.97068,21.7251609 C37.7006887,21.7251609 39.1906738,21.0901673 40.44068,19.8201609 C41.6906863,18.5501545 42.31568,17.00517 42.31568,15.1851609 L42.31568,15.1851609 Z M64.06568,7.1451609 L64.06568,23.0751609 L62.05568,23.0751609 L62.05568,20.3451609 C60.2356709,22.5251718 58.1556917,23.6151609 55.81568,23.6151609 C53.4756683,23.6151609 51.5006881,22.7801693 49.89068,21.1101609 C48.280672,19.4401526 47.47568,17.4501725 47.47568,15.1401609 C47.47568,12.8301494 48.2856719,10.8501692 49.90568,9.2001609 C51.5256881,7.55015265 53.4656687,6.7251609 55.72568,6.7251609 C58.325693,6.7251609 60.4356719,7.8351498 62.05568,10.0551609 L62.05568,7.1451609 L64.06568,7.1451609 Z M62.17568,15.1851609 C62.17568,13.3651518 61.5656861,11.8301671 60.34568,10.5801609 C59.1256739,9.33015465 57.6306889,8.7051609 55.86068,8.7051609 C54.0906712,8.7051609 52.5956861,9.35015445 51.37568,10.6401609 C50.1556739,11.9301673 49.54568,13.4551521 49.54568,15.2151609 C49.54568,16.9751697 50.1656738,18.5001544 51.40568,19.7901609 C52.6456862,21.0801673 54.1306714,21.7251609 55.86068,21.7251609 C57.5906887,21.7251609 59.0756738,21.1051671 60.31568,19.8651609 C61.5556862,18.6251547 62.17568,17.0651703 62.17568,15.1851609 L62.17568,15.1851609 Z"></path>
                                </g>
                            </g>
                        </g>
                    </g>
                </g>
            </g>
        </g>
    </g>
</svg>