<?xml version="1.0" encoding="UTF-8" standalone="no"?>
<svg width="97px" height="47px" viewBox="0 0 97 47" version="1.1" xmlns="http://www.w3.org/2000/svg" xmlns:xlink="http://www.w3.org/1999/xlink" xmlns:sketch="http://www.bohemiancoding.com/sketch/ns">
    <!-- Generator: Sketch 3.3.3 (12081) - http://www.bohemiancoding.com/sketch -->
    <title>lapa-icons</title>
    <desc>Created with Sketch.</desc>
    <defs></defs>
    <g id="Lapa-Website" stroke="none" stroke-width="1" fill="none" fill-rule="evenodd" sketch:type="MSPage">
        <g id="lapa-icons" sketch:type="MSArtboardGroup">
            <path d="M19,1.77018396 C18.2919192,2.00620825 17.5838565,2.24223254 16.7577742,2.36024528 C17.5838564,1.8881967 18.1739177,1.18012264 18.4099387,0.236024292 C17.7018579,0.708074056 16.8757756,0.944098348 15.9316739,1.18012264 C15.2235932,0.472048584 14.2795094,-1.77635684e-15 13.2173882,-1.77635684e-15 C11.0931638,-1.77635684e-15 9.32297983,1.65217122 9.32297983,3.89440495 C9.32297983,4.13042924 9.32297983,4.48446627 9.4409993,4.72049056 C6.25467183,4.60247783 3.42236663,3.06831934 1.41616168,0.708074056 C1.06212123,1.29813538 0.944119827,1.8881967 0.944119827,2.59626957 C0.944119827,3.89440377 1.65220061,5.07452641 2.59628432,5.78260047 C2.006223,5.78260047 1.41616168,5.66458773 0.826100364,5.31055188 L0.826100364,5.31055188 C0.826100364,7.1987474 2.12424247,8.73290707 3.89442643,9.08694527 C3.54038598,9.08694527 3.30436511,9.20495577 2.95032466,9.20495577 L2.24224387,9.20495577 C2.71428573,10.7391165 4.1304473,11.8012265 5.78261179,11.9192391 C4.48446969,12.981349 2.83230519,13.5714104 0.944101771,13.5714104 L0,13.5714104 C1.77018396,14.6335203 3.77638879,15.2235816 6.01863266,15.2235816 C13.0993685,15.2235816 16.9937769,9.32296839 16.9937769,4.2484408 L16.9937769,3.77639103 C17.8198774,3.18633089 18.6459595,2.4782579 19,1.77018396 L19,1.77018396 Z" id="Shape" fill="#B3B8BB" sketch:type="MSShapeGroup"></path>
            <path d="M38.44,3.74 L38.44,5.44 L41.16,5.44 L40.82,8.5 L38.44,8.5 L38.44,17 L34.7,17 L34.7,8.5 L33,8.5 L33,5.44 L34.7,5.44 L34.7,3.74 C34.7,3.74 34.394,0.51 37.42,-2.84217094e-14 L41.16,-2.84217094e-14 L41.16,2.72 L39.46,2.72 C39.46,2.72 38.508,2.686 38.44,3.74 L38.44,3.74 Z" id="Shape-Copy-2" fill="#B3B8BB" sketch:type="MSShapeGroup"></path>
            <g id="Oval-+-Shape-+-Shape" sketch:type="MSLayerGroup" fill="#B3B8BB">
                <path d="M93.7647059,14.8235294 C93.7647059,14.8235294 96.0941176,15 96.9411765,13.7647059 L96.9411765,16.9411765 C96.9411765,16.9411765 94.9294118,18 93.0588235,18 C91.1882353,18 88.1529412,17.0823529 88.1176471,13.4117647 L88.1176471,7.41176471 L86,7.41176471 L86,4.58823529 C86,4.58823529 89.3176471,4.23529412 89.8823529,-4.08562073e-14 L92,-4.08562073e-14 L92,4.23529412 L96.2352941,4.23529412 L96.2352941,7.41176471 L92,7.41176471 L92,11.6470588 C92,11.6470588 91.7176471,14.6470588 93.7647059,14.8235294 L93.7647059,14.8235294 Z" id="Shape-Copy-4" sketch:type="MSShapeGroup"></path>
                <g transform="translate(56.000000, 0.000000)" sketch:type="MSShapeGroup">
                    <circle id="Oval" cx="2.43123628" cy="13.5" r="2.25"></circle>
                    <path d="M15.9312535,15.75 L12.8937398,15.75 C12.8937398,8.77500124 7.1562329,3.03749978 0.181236275,3.03749978 L0.181236275,0 C8.95623965,0 15.9312535,7.0874991 15.9312535,15.75 L15.9312535,15.75 Z" id="Shape"></path>
                    <path d="M10.6437397,15.75 L7.60624314,15.75 C7.60624314,11.6999996 4.23124314,8.32499955 0.068746625,8.32499955 L0.068746625,5.28749978 C6.03123279,5.28749978 10.6437397,10.0124996 10.6437397,15.75 L10.6437397,15.75 Z" id="Shape"></path>
                </g>
            </g>
            <g id="Group" sketch:type="MSLayerGroup" transform="translate(0.000000, 29.000000)">
                <path d="M19,3.77018396 C18.2919192,4.00620483 17.5838565,4.24223479 16.7577742,4.36024528 C17.5838564,3.88819445 18.1739177,3.18012264 18.4099387,2.23602087 C17.7018579,2.7080717 16.8757756,2.94409268 15.9316739,3.18012264 C15.2235932,2.47205083 14.2795094,2 13.2173882,2 C11.0931638,2 9.32297983,3.65217347 9.32297983,5.89439928 C9.32297983,6.13042924 9.32297983,6.4844606 9.4409993,6.72049056 C6.25467183,6.60248007 3.42236663,5.06831709 1.41616168,2.70807181 C1.06212123,3.29813313 0.944119827,3.88819445 0.944119827,4.59626627 C0.944119827,5.8943994 1.65220061,7.07452204 2.59628432,7.78259374 C2.006223,7.78259374 1.41616168,7.66458325 0.826100364,7.31054291 L0.826100364,7.31054291 C0.826100364,9.19873737 2.12424247,10.7329003 3.89442643,11.0869408 C3.54038598,11.0869408 3.30436511,11.2049513 2.95032466,11.2049513 L2.24224387,11.2049513 C2.71428573,12.7391053 4.1304473,13.8012174 5.78261179,13.9192279 C4.48446969,14.9813401 2.83230519,15.5714014 0.944101771,15.5714014 L0,15.5714014 C1.77018396,16.6335135 3.77638879,17.2235749 6.01863266,17.2235749 C13.0993685,17.2235749 16.9937769,11.3229617 16.9937769,6.24843974 L16.9937769,5.77638891 C17.8198774,5.18632747 18.6459595,4.47825566 19,3.77018396 L19,3.77018396 Z" id="Shape-Copy" fill="#50ABF1" sketch:type="MSShapeGroup"></path>
                <path d="M38.44,4.74 L38.44,6.44 L41.16,6.44 L40.82,9.5 L38.44,9.5 L38.44,18 L34.7,18 L34.7,9.5 L33,9.5 L33,6.44 L34.7,6.44 L34.7,4.74 C34.7,4.74 34.394,1.51 37.42,1 L41.16,1 L41.16,3.72 L39.46,3.72 C39.46,3.72 38.508,3.686 38.44,4.74 L38.44,4.74 Z" id="Shape-Copy-3" fill="#435E9F" sketch:type="MSShapeGroup"></path>
                <path d="M93.7647059,14.8235294 C93.7647059,14.8235294 96.0941176,15 96.9411765,13.7647059 L96.9411765,16.9411765 C96.9411765,16.9411765 94.9294118,18 93.0588235,18 C91.1882353,18 88.1529412,17.0823529 88.1176471,13.4117647 L88.1176471,7.41176471 L86,7.41176471 L86,4.58823529 C86,4.58823529 89.3176471,4.23529412 89.8823529,-4.08562073e-14 L92,-4.08562073e-14 L92,4.23529412 L96.2352941,4.23529412 L96.2352941,7.41176471 L92,7.41176471 L92,11.6470588 C92,11.6470588 91.7176471,14.6470588 93.7647059,14.8235294 L93.7647059,14.8235294 Z" id="Shape-Copy-5" fill="#35455E" sketch:type="MSShapeGroup"></path>
                <g id="Oval-+-Shape-+-Shape-Copy" transform="translate(56.000000, 2.000000)" fill="#F49F38" sketch:type="MSShapeGroup">
                    <circle id="Oval" cx="2.43123628" cy="13.5" r="2.25"></circle>
                    <path d="M15.9312535,15.75 L12.8937398,15.75 C12.8937398,8.77500124 7.1562329,3.03749978 0.181236275,3.03749978 L0.181236275,0 C8.95623965,0 15.9312535,7.0874991 15.9312535,15.75 L15.9312535,15.75 Z" id="Shape"></path>
                    <path d="M10.6437397,15.75 L7.60624314,15.75 C7.60624314,11.6999996 4.23124314,8.32499955 0.068746625,8.32499955 L0.068746625,5.28749978 C6.03123279,5.28749978 10.6437397,10.0124996 10.6437397,15.75 L10.6437397,15.75 Z" id="Shape"></path>
                </g>
            </g>
        </g>
    </g>
</svg>