<?xml version="1.0" encoding="UTF-8" standalone="no"?>
<svg width="17px" height="16px" viewBox="0 0 17 16" version="1.1" xmlns="http://www.w3.org/2000/svg" xmlns:xlink="http://www.w3.org/1999/xlink" xmlns:sketch="http://www.bohemiancoding.com/sketch/ns">
    <!-- Generator: Sketch 3.3.3 (12081) - http://www.bohemiancoding.com/sketch -->
    <title>Shape</title>
    <desc>Created with Sketch.</desc>
    <defs></defs>
    <g id="Lapa-Website" stroke="none" stroke-width="1" fill="none" fill-rule="evenodd" sketch:type="MSPage">
        <g id="Artboard-2" sketch:type="MSArtboardGroup" transform="translate(-242.000000, -321.000000)" fill="#444444">
            <g id="free-icon-set-06" sketch:type="MSLayerGroup" transform="translate(148.000000, 232.000000)">
                <path d="M108.760518,96.749529 C107.658791,97.8512558 106.106358,98.2518837 104.70416,98.0014913 L107.35832,95.3473312 C108.35989,94.3457613 108.35989,92.7933281 107.35832,91.7917582 C106.35675,90.7901884 104.804317,90.7901884 103.802747,91.7917582 L101.148587,94.4459183 C100.848116,93.0437205 101.298823,91.4912873 102.400549,90.3895604 C104.153297,88.6368132 107.007771,88.6368132 108.760518,90.3895604 C110.513265,92.1423077 110.513265,94.9467032 108.760518,96.749529 L108.760518,96.749529 Z M98.2440345,99.4537675 L104.503846,93.193956 L105.906044,94.5961538 L99.6462323,100.855965 L98.2440345,99.4537675 L98.2440345,99.4537675 Z M96.7917582,102.308242 C97.7933281,103.309811 99.3457613,103.309811 100.347331,102.308242 L103.001491,99.6540815 C103.301962,101.056279 102.851256,102.608713 101.749529,103.710439 C99.9967817,105.463187 97.1423077,105.463187 95.3895604,103.710439 C93.6368132,101.957692 93.6368132,99.1032181 95.3895604,97.3504709 C96.4912873,96.248744 98.0437205,95.8481161 99.4459183,96.0985086 L96.7917582,98.7526686 C95.7901884,99.7542385 95.7901884,101.35675 96.7917582,102.308242 L96.7917582,102.308242 Z" id="Shape" sketch:type="MSShapeGroup"></path>
            </g>
        </g>
    </g>
</svg>