<?xml version="1.0" encoding="UTF-8" standalone="no"?>
<svg width="38px" height="48px" viewBox="0 0 38 48" version="1.1" xmlns="http://www.w3.org/2000/svg" xmlns:xlink="http://www.w3.org/1999/xlink">
    <!-- Generator: Sketch 3.6.1 (26313) - http://www.bohemiancoding.com/sketch -->
    <title>pin</title>
    <desc>Created with Sketch.</desc>
    <defs></defs>
    <g id="Lapa-Website" stroke="none" stroke-width="1" fill="none" fill-rule="evenodd">
        <g id="share-icon" transform="translate(-101.000000, 0.000000)" fill="#FFFFFF">
            <g id="pin" transform="translate(96.000000, 0.000000)">
                <path d="M24.7040347,0 C11.6052016,0 5,9.39159465 5,17.2230663 C5,21.9650059 6.79554856,26.1838093 10.6459281,27.7562179 C11.2772058,28.0143574 11.8430557,27.7652177 12.0261962,27.0660838 C12.1534803,26.5822328 12.4550479,25.3613912 12.5894748,24.8536834 C12.7740438,24.1622636 12.7024733,23.9194096 12.1930512,23.3171315 C11.0827797,22.0074339 10.3730744,20.3118841 10.3730744,17.9103433 C10.3730744,10.9427178 15.5861509,4.70536863 23.9476158,4.70536863 C31.3512358,4.70536863 35.4190411,9.229311 35.4190411,15.2710912 C35.4190411,23.2205614 31.900943,29.9301902 26.6782953,29.9301902 C23.7937606,29.9301902 21.6345024,27.5449348 22.3267793,24.619115 C23.1556259,21.1263023 24.7613197,17.3570646 24.7613197,14.8356682 C24.7613197,12.5789826 23.5500494,10.6967209 21.0425099,10.6967209 C18.0941189,10.6967209 15.7254348,13.7469677 15.7254348,17.8330585 C15.7254348,20.4353111 16.6048522,22.1957173 16.6048522,22.1957173 C16.6048522,22.1957173 13.5876049,34.9804115 13.0586116,37.219383 C12.0050536,41.6783262 12.9001851,47.1446852 12.9761841,47.696821 C13.0204693,48.0239597 13.4408925,48.101673 13.6310329,47.8545333 C13.9030294,47.4996806 17.4148419,43.1637359 18.6086838,38.8323625 C18.9465366,37.6059495 20.5482305,31.2537447 20.5482305,31.2537447 C21.5060755,33.0807215 24.3056112,34.6904152 27.2827162,34.6904152 C36.1457461,34.6904152 42.1589552,26.6100896 42.1589552,15.7950845 C42.1589552,7.6161887 35.2317578,0 24.7040347,0 L24.7040347,0 Z" id="pinterest-icon"></path>
            </g>
        </g>
    </g>
</svg>