<?xml version="1.0" encoding="UTF-8" standalone="no"?>
<svg width="144px" height="48px" viewBox="0 0 144 48" version="1.1" xmlns="http://www.w3.org/2000/svg" xmlns:xlink="http://www.w3.org/1999/xlink">
    <!-- Generator: Sketch 3.6.1 (26313) - http://www.bohemiancoding.com/sketch -->
    <title>share-icon</title>
    <desc>Created with Sketch.</desc>
    <defs></defs>
    <g id="Lapa-Website" stroke="none" stroke-width="1" fill="none" fill-rule="evenodd">
        <g id="share-icon" fill="#FFFFFF">
            <path d="M48,8.6175534 C46.2340194,9.40093204 44.3360388,9.9304466 42.3440388,10.168233 C44.376932,8.94947573 45.9386796,7.01968932 46.6738252,4.72 C44.7709515,5.84858252 42.6634951,6.66807767 40.4203107,7.10963107 C38.6240388,5.19568932 36.0646602,4 33.2321942,4 C26.8756893,4 22.2029126,9.93196117 23.639534,16.0916893 C15.455068,15.6811262 8.19867961,11.7603883 3.34170874,5.80267961 C0.762058252,10.2278835 2.00365049,16.0191068 6.38924272,18.9502524 C4.77518447,18.8992233 3.25631068,18.4561553 1.92885437,17.7183301 C1.82201942,22.2808932 5.09149515,26.5471845 9.82730097,27.4987961 C8.44135922,27.8758058 6.92330097,27.9623689 5.38031068,27.6673786 C6.63320388,31.5796117 10.2702524,34.4267573 14.579534,34.5060971 C10.439301,37.7506408 5.2247767,39.1998447 0,38.584 C4.35798058,41.3776699 9.53440777,43.0086214 15.0956505,43.0086214 C33.3789903,43.0086214 43.7086602,27.5656699 43.0860583,13.7152233 C45.0103689,12.326835 46.679767,10.5924272 48,8.6175534 L48,8.6175534 Z" id="twitter-icon"></path>
            <path d="M66.0264321,15.6922583 L61,15.6922583 L61,23.8973877 L66.0264321,23.8973877 L66.0264321,48 L75.6923951,48 L75.6923951,23.7946327 L82.4359773,23.7946327 L83.153407,15.6922583 L75.6923951,15.6922583 L75.6923951,11.0769889 C75.6923951,9.16660225 76.0765846,8.41021128 77.9228921,8.41021128 L83.1532643,8.41021128 L83.1532643,0 L76.4607741,0 C69.268495,0 66.0260039,3.16656657 66.0260039,9.23082412 C66.0264321,14.5124311 66.0264321,15.6922583 66.0264321,15.6922583 L66.0264321,15.6922583 Z" id="facebook-icon"></path>
            <path d="M120.704035,0 C107.605202,0 101,9.39159465 101,17.2230663 C101,21.9650059 102.795549,26.1838093 106.645928,27.7562179 C107.277206,28.0143574 107.843056,27.7652177 108.026196,27.0660838 C108.15348,26.5822328 108.455048,25.3613912 108.589475,24.8536834 C108.774044,24.1622636 108.702473,23.9194096 108.193051,23.3171315 C107.08278,22.0074339 106.373074,20.3118841 106.373074,17.9103433 C106.373074,10.9427178 111.586151,4.70536863 119.947616,4.70536863 C127.351236,4.70536863 131.419041,9.229311 131.419041,15.2710912 C131.419041,23.2205614 127.900943,29.9301902 122.678295,29.9301902 C119.793761,29.9301902 117.634502,27.5449348 118.326779,24.619115 C119.155626,21.1263023 120.76132,17.3570646 120.76132,14.8356682 C120.76132,12.5789826 119.550049,10.6967209 117.04251,10.6967209 C114.094119,10.6967209 111.725435,13.7469677 111.725435,17.8330585 C111.725435,20.4353111 112.604852,22.1957173 112.604852,22.1957173 C112.604852,22.1957173 109.587605,34.9804115 109.058612,37.219383 C108.005054,41.6783262 108.900185,47.1446852 108.976184,47.696821 C109.020469,48.0239597 109.440892,48.101673 109.631033,47.8545333 C109.903029,47.4996806 113.414842,43.1637359 114.608684,38.8323625 C114.946537,37.6059495 116.548231,31.2537447 116.548231,31.2537447 C117.506075,33.0807215 120.305611,34.6904152 123.282716,34.6904152 C132.145746,34.6904152 138.158955,26.6100896 138.158955,15.7950845 C138.158955,7.6161887 131.231758,0 120.704035,0 L120.704035,0 Z" id="pinterest-icon"></path>
        </g>
    </g>
</svg>