<?xml version="1.0" encoding="UTF-8" standalone="no"?>
<svg width="48px" height="39px" viewBox="0 0 48 39" version="1.1" xmlns="http://www.w3.org/2000/svg" xmlns:xlink="http://www.w3.org/1999/xlink">
    <!-- Generator: Sketch 3.6.1 (26313) - http://www.bohemiancoding.com/sketch -->
    <title>twitter</title>
    <desc>Created with Sketch.</desc>
    <defs></defs>
    <g id="Lapa-Website" stroke="none" stroke-width="1" fill="none" fill-rule="evenodd">
        <g id="share-icon" transform="translate(0.000000, -4.000000)" fill="#FFFFFF">
            <g id="twitter">
                <path d="M48,8.6175534 C46.2340194,9.40093204 44.3360388,9.9304466 42.3440388,10.168233 C44.376932,8.94947573 45.9386796,7.01968932 46.6738252,4.72 C44.7709515,5.84858252 42.6634951,6.66807767 40.4203107,7.10963107 C38.6240388,5.19568932 36.0646602,4 33.2321942,4 C26.8756893,4 22.2029126,9.93196117 23.639534,16.0916893 C15.455068,15.6811262 8.19867961,11.7603883 3.34170874,5.80267961 C0.762058252,10.2278835 2.00365049,16.0191068 6.38924272,18.9502524 C4.77518447,18.8992233 3.25631068,18.4561553 1.92885437,17.7183301 C1.82201942,22.2808932 5.09149515,26.5471845 9.82730097,27.4987961 C8.44135922,27.8758058 6.92330097,27.9623689 5.38031068,27.6673786 C6.63320388,31.5796117 10.2702524,34.4267573 14.579534,34.5060971 C10.439301,37.7506408 5.2247767,39.1998447 0,38.584 C4.35798058,41.3776699 9.53440777,43.0086214 15.0956505,43.0086214 C33.3789903,43.0086214 43.7086602,27.5656699 43.0860583,13.7152233 C45.0103689,12.326835 46.679767,10.5924272 48,8.6175534 L48,8.6175534 Z" id="twitter-icon"></path>
            </g>
        </g>
    </g>
</svg>